<svg id="圖層_1" data-name="圖層 1" xmlns="http://www.w3.org/2000/svg" viewBox="0 0 60 60"><title>工作區域 2</title><path d="M60,31.29a2.56,2.56,0,0,1-2.12,1.92,2.39,2.39,0,0,1-2.68-2.16c0-.64,0-1.29,0-1.93a2.38,2.38,0,0,1,2.15-2.37,2.44,2.44,0,0,1,2.55,1.73c0,.08,0,.2.12.23Z"/><path d="M29.81,5.05A25.25,25.25,0,0,0,5.44,24.65a24.08,24.08,0,0,0-.38,8.79,24.69,24.69,0,0,0,9.15,16.38A24.94,24.94,0,0,0,25.35,55a2.41,2.41,0,1,1-.77,4.76,29.78,29.78,0,0,1-20-13.61A28.94,28.94,0,0,1,.08,32.37,29.24,29.24,0,0,1,5.16,13.42a29,29,0,0,1,16.55-12A29.36,29.36,0,0,1,45.87,4.78c.84.51.83.52,1.4-.31.44-.64.88-1.28,1.34-1.92.19-.27.42-.54.81-.45s.47.39.56.69c.74,2.66,1.49,5.33,2.21,8a1.34,1.34,0,0,1-1.33,1.72c-1.38.14-2.76.24-4.14.37l-3.56.32c-.18,0-.35,0-.53,0-.76,0-1-.46-.62-1.12.53-.83,1.1-1.65,1.69-2.45.22-.32.18-.44-.15-.64A25.41,25.41,0,0,0,29.81,5.05Z"/><path d="M30.46,21c0,2.72,0,5.43,0,8.15A.8.8,0,0,0,31,30q7.48,3.84,15,7.72a1.95,1.95,0,0,1-1.28,3.68,4,4,0,0,1-.64-.28L27,32.37a.68.68,0,0,1-.46-.7q0-9.41,0-18.81a1.95,1.95,0,1,1,3.89-.1C30.47,15.51,30.46,18.27,30.46,21Z"/><path d="M52,44.4A2.39,2.39,0,0,1,54.12,48a9.81,9.81,0,0,1-1.45,1.83A2.4,2.4,0,0,1,48.9,47a9.87,9.87,0,0,1,1.57-2A2.08,2.08,0,0,1,52,44.4Z"/><path d="M39,57a2.32,2.32,0,0,1-1.62,2.26,13.58,13.58,0,0,1-2.17.48,2.39,2.39,0,0,1-1-4.65,13.19,13.19,0,0,1,2.05-.46A2.36,2.36,0,0,1,39,57Z"/><path d="M58.72,38.65a7.49,7.49,0,0,1-1.09,2.88,2.29,2.29,0,0,1-2.88.66,2.32,2.32,0,0,1-1.29-2.77,13.68,13.68,0,0,1,.7-2,2.36,2.36,0,0,1,2.71-1.34A2.46,2.46,0,0,1,58.72,38.65Z"/><path d="M55.92,23.94A2.21,2.21,0,0,1,54,22.5a16.26,16.26,0,0,1-.69-1.92,2.39,2.39,0,0,1,4.34-1.87,8.22,8.22,0,0,1,.92,2.52A2.41,2.41,0,0,1,55.92,23.94Z"/><path d="M43.85,56.49a2.39,2.39,0,0,1-2.32-1.55,2.35,2.35,0,0,1,.75-2.69,13.42,13.42,0,0,1,2-1.22A2.33,2.33,0,0,1,47,51.6a2.41,2.41,0,0,1,.35,2.77A5.92,5.92,0,0,1,43.85,56.49Z"/></svg>