<svg id="圖層_1" data-name="圖層 1" xmlns="http://www.w3.org/2000/svg" viewBox="0 0 30 25"><title>工作區域 7</title><path d="M10.11,5.14a8,8,0,0,1,4-1.76,1.41,1.41,0,0,1-.3-1.21,1.33,1.33,0,0,1,.51-.76A1.34,1.34,0,0,1,16,1.52,1.34,1.34,0,0,1,16,3.36a8.52,8.52,0,0,1,4.14,1.78Z"/><path d="M29.76,9.32a3.08,3.08,0,0,0-2.08-2.23,4.32,4.32,0,0,0-3.14.2,2.35,2.35,0,0,0-1.32,1.55c-.08.27-.11.55-.17.85a2.29,2.29,0,0,1-.11-.23,13.37,13.37,0,0,0-2.23-3.55.4.4,0,0,0-.32-.17H9.86a.34.34,0,0,0-.28.12A13.11,13.11,0,0,0,7.24,9.62a12,12,0,0,0-.72,2.25c0,.23-.13.23-.3.13a2.77,2.77,0,0,1-.7-.52A4.76,4.76,0,0,1,4.36,9.06c-.08-.39-.12-.78-.22-1.15A3,3,0,0,0,2.26,6c-.68-.3-.69-.29-1.09.31a.33.33,0,0,0-.06.1c-.07.15-.18.17-.34.15L0,6.51a6.65,6.65,0,0,1,1.39,1,2.24,2.24,0,0,1,.76,1.25L2.48,11a11.5,11.5,0,0,0,1.11,3.86A3.54,3.54,0,0,0,6.39,17c.13,0,.17.09.21.21a6.6,6.6,0,0,0,2.69,3.58.29.29,0,0,1,.15.28c0,.33,0,.65,0,1s.07.32.32.32H20.61c.16,0,.22-.05.21-.22s0-.53,0-.79a.64.64,0,0,1,.38-.72,3.59,3.59,0,0,0,.57-.46,6.66,6.66,0,0,0,1.75-2.54c.1,0,.1.11.14.16a.74.74,0,0,0,.82.24.75.75,0,0,0,.48-.73c0-.48.08-.63.53-.77s.65-.15,1-.26a5.46,5.46,0,0,0,3.38-3.74c.09-.24.05-.52.18-.75V10.33C29.92,10,29.86,9.65,29.76,9.32Zm-3,5.12a2.1,2.1,0,0,1-.86.42,3.59,3.59,0,0,0-2,.89,11.62,11.62,0,0,0-.1-3.18c.59.22.92.13,1.13-.28a.72.72,0,0,0,0-.67,4.71,4.71,0,0,1-.45-1.72,1.24,1.24,0,0,1,1.19-1.48,3.43,3.43,0,0,1,1-.06,1.87,1.87,0,0,1,1.77,1.8A4.19,4.19,0,0,1,26.78,14.44Z"/></svg>